<svg version="1.1" id="Layer_1" xmlns="http://www.w3.org/2000/svg" xmlns:xlink="http://www.w3.org/1999/xlink" x="0px" y="0px"
	 width="100%" viewBox="0 0 1058 406" enable-background="new 0 0 1058 406" xml:space="preserve">
<path fill="#F6F3EB" opacity="1.000000" stroke="none" 
	d="
M658.000000,407.000000 
	C438.666656,407.000000 219.833328,407.000000 1.000000,407.000000 
	C1.000000,271.666656 1.000000,136.333328 1.000000,1.000000 
	C353.666656,1.000000 706.333313,1.000000 1059.000000,1.000000 
	C1059.000000,136.333328 1059.000000,271.666656 1059.000000,407.000000 
	C925.500000,407.000000 792.000000,407.000000 658.000000,407.000000 
M235.862778,105.082169 
	C235.862778,105.082169 235.629440,105.429291 235.871262,105.985741 
	C236.567413,106.357056 237.263550,106.728371 238.255676,107.696861 
	C245.764404,114.426559 253.273148,121.156265 260.590424,127.714363 
	C270.226959,118.073380 280.183136,108.112617 290.193298,98.097862 
	C290.138550,97.980713 290.067200,97.619583 289.852173,97.397545 
	C259.752289,66.313828 224.027161,47.982662 179.823959,48.714771 
	C174.725082,48.799221 169.572449,47.667210 164.518158,48.055305 
	C144.490326,49.593166 125.244278,54.250916 107.081032,63.128883 
	C84.567184,74.133369 65.709816,89.363907 50.795555,109.634148 
	C34.003654,132.456314 25.503595,158.244675 21.915031,186.937439 
	C21.973856,196.620865 22.032681,206.304276 21.947140,216.827637 
	C24.530853,228.643753 26.319977,240.705429 29.878681,252.220215 
	C35.670353,270.960236 45.876625,287.459869 58.409744,302.546844 
	C83.071762,332.234222 114.902420,349.664154 152.606781,355.591278 
	C174.831451,359.084961 197.221619,358.269684 219.292191,351.809784 
	C268.472870,337.414948 302.932983,307.239777 321.590790,258.474060 
	C323.357941,252.312759 325.125122,246.151443 327.103516,239.519547 
	C327.081360,239.349045 327.059174,239.178543 327.274323,238.317200 
	C328.013092,234.199982 328.751862,230.082764 329.770294,225.339386 
	C329.755798,224.885803 329.741333,224.432205 329.992889,223.188049 
	C330.349274,216.071945 330.705627,208.955841 331.239105,200.985535 
	C331.157776,198.657028 331.076447,196.328537 331.220276,193.272980 
	C330.902802,189.201492 330.585327,185.130005 330.268799,181.070724 
	C328.882843,180.929291 328.237061,180.805801 327.591248,180.805695 
	C285.967590,180.799316 244.343796,180.847672 202.720474,180.731522 
	C198.859253,180.720749 197.785522,182.058777 198.074356,185.685638 
	C198.364273,189.325592 198.142776,193.006363 198.143280,196.669250 
	C198.144180,203.418015 198.143539,210.166794 198.143539,217.426025 
	C227.469269,217.426025 256.025085,217.426025 285.430237,217.426025 
	C284.576477,224.026505 283.802887,230.007355 282.763550,236.512680 
	C282.797363,236.897278 282.831177,237.281860 282.506927,238.312057 
	C281.539856,241.887604 280.572784,245.463165 279.080597,249.528610 
	C278.909637,249.968597 278.738678,250.408585 278.161865,251.369019 
	C273.317444,259.445190 268.473053,267.521362 263.799957,275.824249 
	C263.799957,275.824249 263.587524,275.635498 263.005066,275.936096 
	C259.857239,279.451202 256.709412,282.966278 253.559662,286.558807 
	C253.559662,286.558807 253.482269,286.561707 252.883331,286.821289 
	C250.211166,289.183350 247.539017,291.545441 244.964996,293.959869 
	C244.964996,293.959869 244.907532,293.864594 244.251450,294.023926 
	C242.518860,295.358826 240.786270,296.693756 238.442230,298.346313 
	C219.099258,310.428406 198.220062,316.978607 175.229507,315.643616 
	C168.275497,315.239777 161.224640,315.023346 154.427353,313.670135 
	C131.148392,309.035858 111.571281,297.483093 95.125298,280.508820 
	C93.887550,279.231293 93.088676,277.528595 93.004982,276.129303 
	C115.002052,276.113953 136.999207,276.130737 158.996155,276.072754 
	C175.317932,276.029724 191.639465,275.889648 208.680634,275.386078 
	C208.680634,265.995300 208.680634,256.604492 208.680634,246.942596 
	C206.264664,246.942596 204.442154,246.942795 202.619659,246.942551 
	C180.123138,246.939575 157.626190,246.991135 135.130936,246.820816 
	C133.484100,246.808350 130.451904,245.234955 130.422714,244.312607 
	C130.087402,233.719208 130.209076,223.111359 130.209076,211.930237 
	C147.767746,211.930237 164.671478,211.930237 181.992828,211.930237 
	C181.992828,201.899048 181.992828,192.450394 181.704071,182.154282 
	C164.748688,182.045395 147.793304,181.936493 130.458786,181.127533 
	C130.358307,172.653091 130.479324,164.167816 130.066055,155.708649 
	C129.852066,151.328094 131.153595,150.002747 135.611053,150.050415 
	C158.075317,150.290741 180.543137,150.199860 203.009705,150.224731 
	C204.795364,150.226700 206.581009,150.224991 208.735886,150.224991 
	C208.735886,140.784607 208.739685,131.871887 208.700516,122.959351 
	C208.699905,122.822495 208.168579,122.687981 206.995605,122.303719 
	C185.518188,122.270142 164.040695,122.186928 142.563385,122.219856 
	C127.419136,122.243073 112.275131,122.423950 96.589325,122.124504 
	C96.366150,122.086227 96.142967,122.047943 96.153641,121.364769 
	C97.615295,119.788773 98.943283,118.058464 100.558319,116.659554 
	C133.019211,88.542824 170.232727,82.017380 210.887009,93.310150 
	C218.920547,95.541679 226.184647,100.543243 233.911957,104.153275 
	C233.911957,104.153275 233.764709,104.208778 234.024628,104.754829 
	C234.571487,104.986824 235.118347,105.218826 235.862778,105.082169 
M584.865906,159.171570 
	C584.865906,159.171570 584.712158,159.241516 585.000671,159.848267 
	C586.639038,160.641571 588.277466,161.434860 590.361511,162.785294 
	C601.548950,166.801575 612.762512,167.330963 624.635193,163.097855 
	C625.128174,162.771118 625.621155,162.444382 626.019104,162.028671 
	C626.019104,162.028671 626.078796,162.144318 626.834229,161.988358 
	C627.769470,161.330505 629.478882,160.713959 629.516541,160.008255 
	C629.798157,154.728561 629.749451,149.431259 629.804199,144.139481 
	C629.130615,144.220398 628.457092,144.301331 627.315796,144.603073 
	C627.211487,144.740387 627.107239,144.877686 626.352234,145.043427 
	C625.223572,145.669891 624.094910,146.296341 622.155823,146.958450 
	C618.419617,147.684982 614.710999,148.785492 610.941711,149.063797 
	C601.789612,149.739517 595.673645,146.082657 594.041321,137.236954 
	C592.778687,130.394730 592.710571,122.857338 594.204651,116.091240 
	C596.507996,105.660294 603.843567,102.155754 614.292175,104.790527 
	C618.263550,105.791985 622.174561,107.032738 626.567993,108.295105 
	C627.805237,104.454826 628.958069,100.876717 630.627319,96.941330 
	C631.090149,95.436249 631.553040,93.931160 632.206848,91.804977 
	C626.268494,90.393959 620.915955,88.538979 615.427368,87.948013 
	C606.050964,86.938423 596.664124,87.127594 588.161987,92.717415 
	C588.161987,92.717415 587.997986,92.895500 587.313293,92.956291 
	C585.822021,94.268387 584.330688,95.580482 582.938416,96.932106 
	C582.938416,96.932106 582.889160,96.837509 582.244202,97.011154 
	C580.745789,98.940338 579.247375,100.869522 577.872498,102.905464 
	C577.872498,102.905464 577.803284,102.757584 577.165649,103.034470 
	C576.061890,106.354919 574.958130,109.675377 573.698242,113.193275 
	C573.698242,113.193275 573.838318,113.402435 573.279358,113.944962 
	C570.407959,126.917290 570.645508,139.542221 577.545959,151.436234 
	C577.545959,151.436234 577.536804,151.513733 577.770081,152.112534 
	C578.823669,153.443787 579.877258,154.775055 580.982788,156.025192 
	C580.982788,156.025192 580.895691,156.066299 581.100525,156.682266 
	C582.319397,157.555115 583.538269,158.427979 584.865906,159.171570 
M668.644287,73.079376 
	C664.789856,73.394806 660.935425,73.710236 656.729248,74.406860 
	C656.695251,74.576385 656.661316,74.745903 656.060364,75.296326 
	C653.179382,81.390465 653.069214,89.276573 645.272278,92.202888 
	C639.510864,94.365242 638.915161,98.631042 640.300232,103.940056 
	C641.151062,104.068970 641.962891,104.325340 642.762878,104.292656 
	C651.207092,103.947571 649.584839,105.518280 649.648621,111.560425 
	C649.768066,122.881516 649.625610,134.209579 649.977661,145.522766 
	C650.304688,156.031586 654.889893,161.790085 664.833740,164.754333 
	C673.303284,167.279114 681.628540,165.790085 689.791809,163.157227 
	C690.737244,162.852295 691.921082,161.467224 691.973511,160.526031 
	C692.209290,156.297028 692.076294,152.047470 692.076294,147.738174 
	C687.906311,148.318970 684.407288,149.053665 680.878540,149.247192 
	C673.140076,149.671600 670.464111,147.191406 670.379639,139.538437 
	C670.265625,129.215576 670.431213,118.889435 670.295471,108.567085 
	C670.252502,105.299355 671.468506,104.161598 674.690857,104.272781 
	C680.135132,104.460640 685.590515,104.324348 691.283691,104.324348 
	C691.283691,98.919365 691.283691,94.188370 691.283691,88.794083 
	C684.270081,88.794083 677.541016,88.794083 670.344482,88.794083 
	C670.344482,86.333176 670.464478,84.524323 670.317627,82.737404 
	C670.069397,79.717613 669.652283,76.711700 669.270874,73.714134 
	C669.270874,73.714134 669.237061,73.700249 668.644287,73.079376 
M728.389587,162.489471 
	C728.321350,148.822311 728.253052,135.155136 728.526367,121.080307 
	C728.553894,120.733353 728.581360,120.386406 729.195862,119.801437 
	C733.591675,107.248863 743.814575,105.856369 755.567261,106.905251 
	C756.057495,100.331635 756.507568,94.296745 757.086243,86.536880 
	C750.585327,87.904724 744.764587,88.111130 739.957214,90.423943 
	C735.031128,92.793930 731.096924,97.225731 726.549316,100.899887 
	C725.436157,97.052925 725.463257,91.733109 722.964966,89.948395 
	C720.143433,87.932747 715.052917,89.069794 710.946655,88.895721 
	C710.138123,88.861435 709.224792,88.923538 708.541138,89.284515 
	C708.179810,89.475243 708.209045,90.405632 707.889771,91.926727 
	C707.881958,112.961349 707.856262,133.996002 707.886841,155.030563 
	C707.891113,157.983185 708.170776,160.935394 708.957397,164.311890 
	C714.980957,164.228958 721.004517,164.146027 727.569580,164.172043 
	C727.760071,163.885452 727.950623,163.598846 728.389587,162.489471 
M431.132812,82.113693 
	C431.132812,82.113693 431.144409,82.151810 431.935059,82.007317 
	C432.160126,77.919769 432.274536,73.822197 432.644073,69.747749 
	C432.959137,66.274170 431.644745,65.110504 428.133179,65.162613 
	C416.180298,65.339996 404.222809,65.179619 392.267792,65.256767 
	C387.159668,65.289726 382.053253,65.590508 376.379944,65.721840 
	C376.266754,65.873642 376.153534,66.025452 375.552246,66.801636 
	C375.510315,98.010674 375.465942,129.219711 375.443298,160.428757 
	C375.442841,161.071472 375.694763,161.714401 375.674896,162.673599 
	C375.674896,162.673599 375.875793,162.962494 376.072968,163.873062 
	C394.008392,163.953415 411.943848,164.033768 430.489807,164.370377 
	C431.196442,163.573853 432.466858,162.808792 432.513397,161.975433 
	C432.730377,158.089920 432.698334,154.181839 432.536835,150.290894 
	C432.502869,149.472336 431.549591,148.691925 430.099518,147.683853 
	C419.081055,147.720795 408.062592,147.757751 396.881042,147.394424 
	C396.688110,147.162338 396.443085,147.019867 396.184387,146.035049 
	C396.187714,138.035294 396.191071,130.035553 397.100739,121.905960 
	C407.858582,121.905960 418.616394,121.905960 429.574890,121.905960 
	C429.574890,115.675034 429.574890,110.174683 429.574890,104.091553 
	C418.308899,104.091553 407.443207,104.091553 395.809265,104.091553 
	C396.253479,96.426674 396.661713,89.382080 397.980865,82.513084 
	C408.380341,82.423332 418.779846,82.333580 429.632385,82.561531 
	C430.131805,82.420296 430.631256,82.279060 431.132812,82.113693 
M656.535156,318.882874 
	C656.468384,318.404785 656.401672,317.926697 656.551880,316.687653 
	C656.551880,282.677765 656.551880,248.667877 656.551880,214.362488 
	C649.927551,214.362488 643.978882,214.362488 637.352051,214.199600 
	C636.949219,215.322830 636.196655,216.445389 636.194519,217.569412 
	C636.132446,250.116974 636.124756,282.664734 636.222473,315.212158 
	C636.226318,316.504883 637.348267,317.794281 638.885498,319.222076 
	C644.595825,319.170593 650.306213,319.119080 656.535156,318.882874 
M699.656982,317.335815 
	C699.715881,294.009155 699.802734,270.682434 699.750061,247.356018 
	C699.747437,246.201370 698.524719,244.049118 697.877625,244.052002 
	C691.817688,244.079071 685.759460,244.475479 679.332764,245.533936 
	C679.332764,269.939819 679.332764,294.345734 679.332764,319.800537 
	C686.403442,319.185608 692.837830,318.626007 699.656982,317.335815 
M453.902466,164.283356 
	C459.632050,163.935074 465.361603,163.586792 471.861084,162.770020 
	C471.960022,161.784607 472.144928,160.799240 472.145416,159.813782 
	C472.160828,127.541428 472.160828,95.269073 472.149170,62.996727 
	C472.148743,61.877262 472.005707,60.757843 471.917755,59.472378 
	C465.105011,59.472378 458.560577,59.472378 452.105530,59.472378 
	C451.898438,60.059494 451.695923,60.365879 451.695618,60.672470 
	C451.661804,94.274422 451.632996,127.876411 451.680817,161.478271 
	C451.682068,162.338867 452.533142,163.198257 453.902466,164.283356 
M976.147156,318.844147 
	C995.437683,318.904816 1014.728149,318.965515 1034.815796,318.649872 
	C1034.943726,317.169800 1035.172241,315.690491 1035.183594,314.209503 
	C1035.262573,303.850983 1035.248169,303.850922 1025.086304,303.850983 
	C1017.174744,303.851013 1009.263123,303.850952 1000.570129,303.850952 
	C1001.617126,301.883667 1002.086609,300.674774 1002.825562,299.662628 
	C1011.955261,287.157806 1020.765259,274.394135 1030.435669,262.320190 
	C1035.225098,256.340393 1033.797607,250.423416 1033.768433,244.071625 
	C1031.949585,243.965469 1030.792603,243.840012 1029.635620,243.839157 
	C1013.303223,243.827072 996.970581,243.801468 980.638794,243.902039 
	C979.563965,243.908676 977.608459,244.849670 977.566895,245.458679 
	C977.284363,249.598801 977.233154,253.780029 977.557861,257.912598 
	C977.615356,258.644440 979.759583,259.710724 980.978455,259.765198 
	C985.801941,259.980713 990.640686,259.855682 995.473755,259.856232 
	C999.882263,259.856720 1004.290771,259.856354 1009.862122,259.856354 
	C1008.303711,262.263367 1007.514160,263.637115 1006.578918,264.903259 
	C997.577209,277.090149 988.798584,289.454285 979.418091,301.343231 
	C975.272400,306.597656 974.498047,311.954651 976.147156,318.844147 
M858.584900,215.928543 
	C858.637878,223.915924 858.690918,231.903290 858.447144,240.701508 
	C858.770386,244.631958 859.093628,248.562393 859.487671,253.353348 
	C846.207947,237.527145 821.882507,239.037964 813.294800,257.218750 
	C805.671204,273.358521 805.677368,290.389038 813.521057,306.457001 
	C819.880981,319.485474 834.083618,324.316711 847.011169,318.771210 
	C851.411743,316.883484 855.060913,313.244202 859.041138,310.414001 
	C864.244080,319.989929 866.678955,321.024841 878.718018,318.562225 
	C878.718018,283.883301 878.718018,249.171555 878.718018,213.975800 
	C874.905701,213.975800 871.434326,213.837097 867.979431,214.017014 
	C864.878479,214.178513 861.795837,214.690247 858.584900,215.928543 
M500.358032,303.000854 
	C482.757751,304.633301 475.380707,295.398804 472.748596,284.944641 
	C471.113495,278.450500 470.752991,271.399597 471.149872,264.677094 
	C472.070526,249.081924 482.035797,238.685150 497.474152,236.946625 
	C502.313904,236.401611 507.372040,237.295197 512.273071,237.954712 
	C516.102783,238.470062 521.017761,241.506790 523.329468,240.052170 
	C526.257568,238.209702 526.831116,232.841049 528.803894,229.201141 
	C530.612671,225.863861 529.469116,224.812210 526.263977,223.507431 
	C513.969604,218.502518 501.221741,217.707016 488.463989,219.975006 
	C471.700226,222.955139 458.670258,231.572021 452.824493,248.368866 
	C447.261444,264.353394 447.707489,280.468903 454.077118,296.158905 
	C458.795746,307.782074 467.415771,315.544128 479.654388,318.711426 
	C495.791626,322.887604 511.714905,320.667450 527.407227,316.140289 
	C528.776062,315.745361 530.510132,313.465424 530.531799,312.037659 
	C530.756836,297.209961 530.747864,282.376129 530.510010,267.548706 
	C530.490295,266.318146 528.353760,264.098602 527.158508,264.069397 
	C516.166748,263.800995 505.164185,263.836761 494.169586,264.042114 
	C493.112152,264.061859 491.261871,265.769043 491.189240,266.792938 
	C490.863342,271.387329 491.047333,276.017914 491.047333,281.230896 
	C493.576782,281.230896 495.530701,281.229980 497.484619,281.231049 
	C510.018860,281.238007 510.018829,281.238129 510.019257,293.786926 
	C510.019562,302.587341 510.019592,302.587341 500.358032,303.000854 
M839.098145,118.431458 
	C836.622742,104.570312 830.138184,94.210991 815.900818,89.468216 
	C799.964294,84.159401 781.148254,89.297668 772.349670,102.676659 
	C766.317932,111.848412 765.835876,122.381233 766.826355,132.955368 
	C768.115112,146.713348 774.327393,157.616440 787.467346,162.816483 
	C801.441223,168.346527 815.395874,167.527374 827.372742,157.553528 
	C839.383301,147.551666 840.514954,133.661285 839.098145,118.431458 
M552.031433,282.639862 
	C545.473511,292.777802 545.809937,306.788849 553.708618,313.975006 
	C557.204041,317.155029 562.133362,319.826813 566.739807,320.506561 
	C578.095825,322.182281 588.563721,319.529785 595.558167,309.911896 
	C598.333313,313.431763 600.071960,317.571838 603.063965,318.910675 
	C606.332520,320.373138 610.761108,319.243164 614.674744,319.243164 
	C614.674744,299.810455 615.049255,281.174225 614.484436,262.566437 
	C614.268372,255.448990 609.870300,249.555817 603.280640,246.442520 
	C587.691040,239.077164 572.203674,241.226807 557.043274,248.079285 
	C556.268005,248.429718 555.572083,250.669098 555.949097,251.558517 
	C557.558899,255.356033 559.585815,258.976715 561.178345,262.107086 
	C568.540894,260.543091 575.270386,258.481964 582.134338,257.823883 
	C589.798279,257.089111 593.531250,260.733948 594.610413,267.680664 
	C595.130310,271.027496 594.033813,272.205292 590.728760,272.278748 
	C585.405579,272.397064 580.073425,272.680115 574.774597,273.196350 
	C566.529907,273.999542 558.720886,276.076141 552.031433,282.639862 
M548.834473,95.649338 
	C536.298889,84.451546 507.291656,83.204521 495.351898,102.463974 
	C488.605347,113.346512 488.297852,125.505600 490.346893,137.726257 
	C492.029785,147.763229 497.121277,155.919525 506.300781,160.625778 
	C521.140625,168.234024 536.465881,167.322876 551.757202,161.861771 
	C552.960327,161.432098 554.612122,160.067383 554.684387,159.040649 
	C555.004333,154.498657 554.822815,149.921326 554.822815,145.881714 
	C546.476562,147.574585 538.799622,149.690323 530.982849,150.587433 
	C518.983582,151.964569 509.780548,143.399628 510.682983,131.950394 
	C512.260620,131.950394 513.892273,131.950333 515.523865,131.950394 
	C528.521362,131.950851 541.520020,132.028824 554.514954,131.847839 
	C556.036194,131.826660 558.822266,130.427216 558.854797,129.583252 
	C559.321899,117.450027 558.685242,105.513451 548.834473,95.649338 
M741.959290,293.502533 
	C742.572510,285.572998 742.569214,277.532379 743.972717,269.745270 
	C745.372620,261.978485 751.663452,258.232330 759.532593,259.014832 
	C766.221436,259.679962 769.849609,263.520905 770.125488,271.781097 
	C770.614319,286.418488 770.556702,301.074066 770.740967,315.721863 
	C770.754761,316.816956 770.874939,317.910706 770.939331,318.906128 
	C777.725952,318.906128 784.148621,318.906128 790.457825,318.906128 
	C790.457825,299.799988 791.038025,281.012726 790.201721,262.288757 
	C789.810669,253.532913 784.239746,246.938766 775.364563,243.993057 
	C767.787170,241.478088 760.158875,241.501114 752.917480,244.647217 
	C748.382996,246.617279 744.368286,249.783798 739.848511,252.581787 
	C739.245300,250.728912 738.789307,248.593384 737.845093,246.701523 
	C737.272522,245.554337 735.995605,244.045868 734.946960,243.973282 
	C730.547241,243.668716 726.114197,243.844681 721.531494,243.844681 
	C721.531494,269.326263 721.531494,294.045654 721.531494,318.820007 
	C728.443542,318.820007 734.984436,318.820007 741.959290,318.820007 
	C741.959290,310.433594 741.959290,302.467621 741.959290,293.502533 
M896.095154,278.650055 
	C896.148071,281.977814 896.112366,285.309784 896.269592,288.632599 
	C896.925659,302.494690 906.364990,314.453552 919.600586,318.568359 
	C932.173218,322.477020 944.596008,321.281647 956.914001,317.609222 
	C958.541504,317.124023 960.804932,315.363281 960.963318,313.985291 
	C961.479492,309.492889 961.156738,304.904083 961.156738,299.736420 
	C958.579590,300.730743 956.935120,301.478302 955.223022,302.006805 
	C946.581543,304.674164 937.915222,306.460205 928.766357,304.401855 
	C922.612915,303.017334 915.377441,293.714142 917.929871,286.915222 
	C919.374817,286.915222 921.006165,286.915192 922.637512,286.915192 
	C934.961060,286.915283 947.294434,286.629486 959.603699,287.048706 
	C964.921814,287.229858 966.396973,285.355865 965.815369,280.500702 
	C965.361267,276.710052 965.585388,272.823700 964.961914,269.070648 
	C963.394531,259.635712 959.355835,251.379898 950.476257,246.985168 
	C927.483093,235.605209 897.113464,244.953796 896.095154,278.650055 
M698.759521,230.168686 
	C701.362244,224.822388 700.895447,219.281845 697.597534,216.377426 
	C694.414978,213.574631 686.420898,213.098663 682.458191,215.517914 
	C678.721985,217.798889 677.184753,221.542618 678.349854,225.353821 
	C679.267090,228.354050 681.441589,232.032135 684.053589,233.220810 
	C688.820129,235.390030 694.127930,234.898361 698.759521,230.168686 
z"/>
<path fill="#284F74" opacity="1.000000" stroke="none" 
	d="
M92.085785,276.023529 
	C93.088676,277.528595 93.887550,279.231293 95.125298,280.508820 
	C111.571281,297.483093 131.148392,309.035858 154.427353,313.670135 
	C161.224640,315.023346 168.275497,315.239777 175.229507,315.643616 
	C198.220062,316.978607 219.099258,310.428406 239.037750,298.302246 
	C241.391357,296.793671 243.149445,295.329132 244.907532,293.864594 
	C244.907532,293.864594 244.964996,293.959869 245.279083,293.927490 
	C248.921371,292.202057 252.925049,291.235687 253.482269,286.561707 
	C253.482269,286.561707 253.559662,286.558807 253.922241,286.640442 
	C258.620514,284.062653 262.609650,281.112457 263.587524,275.635498 
	C263.587524,275.635498 263.799957,275.824249 264.077240,275.784546 
	C265.262451,275.142517 266.456696,274.737732 267.031036,273.905243 
	C270.323853,269.132629 274.096985,264.532684 276.385223,259.296448 
	C277.438568,256.885986 281.329224,254.459137 278.567688,250.848572 
	C278.738678,250.408585 278.909637,249.968597 279.635498,249.153214 
	C282.575073,245.433441 284.596222,242.001572 282.864990,237.666458 
	C282.831177,237.281860 282.797363,236.897278 283.165894,236.025726 
	C287.448761,230.867599 285.655945,225.251831 286.333466,220.019333 
	C286.729858,216.957962 285.832947,215.683380 282.704163,215.000122 
	C254.804886,214.986328 227.394241,214.973038 199.988007,214.494385 
	C200.319977,205.572937 200.980515,197.111465 200.844315,188.662842 
	C200.768372,183.951416 202.287781,182.836624 206.794952,182.857651 
	C242.939743,183.026337 279.085663,182.945740 315.231262,182.962112 
	C319.055908,182.963837 323.779144,181.763840 326.444977,183.558411 
	C328.964783,185.254623 329.320435,190.162964 330.640411,193.653763 
	C330.693390,193.793869 330.874023,193.885696 330.995148,194.000031 
	C331.076447,196.328537 331.157776,198.657028 331.100433,201.865356 
	C330.165375,206.562927 328.965332,210.352600 328.697449,214.207047 
	C328.473816,217.424866 329.342133,220.718536 329.726868,223.978622 
	C329.741333,224.432205 329.755798,224.885803 329.303162,225.789948 
	C328.236328,230.496338 327.636658,234.752182 327.036987,239.008026 
	C327.059174,239.178543 327.081360,239.349045 326.650879,239.807877 
	C324.561371,244.528748 322.761871,248.911087 321.369934,253.419235 
	C320.834137,255.154587 321.225708,257.176270 321.194763,259.067505 
	C302.932983,307.239777 268.472870,337.414948 219.292191,351.809784 
	C197.221619,358.269684 174.831451,359.084961 152.606781,355.591278 
	C114.902420,349.664154 83.071762,332.234222 58.409744,302.546844 
	C45.876625,287.459869 35.670353,270.960236 29.878681,252.220215 
	C26.319977,240.705429 24.530853,228.643753 22.331951,216.513916 
	C23.117727,216.033997 23.868364,215.870422 23.869627,215.701248 
	C23.941935,206.004791 23.963480,196.307770 23.889502,186.611588 
	C23.887951,186.408630 22.711611,186.214630 22.083324,186.016449 
	C25.503595,158.244675 34.003654,132.456314 50.795555,109.634148 
	C65.709816,89.363907 84.567184,74.133369 107.081032,63.128883 
	C125.244278,54.250916 144.490326,49.593166 164.518158,48.055305 
	C169.572449,47.667210 174.725082,48.799221 179.823959,48.714771 
	C224.027161,47.982662 259.752289,66.313828 289.852173,97.397545 
	C290.067200,97.619583 290.138550,97.980713 290.193298,98.097862 
	C280.183136,108.112617 270.226959,118.073380 260.590424,127.714363 
	C253.273148,121.156265 245.764404,114.426559 238.061890,107.048126 
	C237.121887,106.076035 236.375656,105.752663 235.629440,105.429291 
	C235.629440,105.429291 235.862778,105.082169 235.701874,104.938736 
	C234.948898,104.599792 234.356796,104.404289 233.764709,104.208778 
	C233.764709,104.208778 233.911957,104.153275 233.880798,103.814865 
	C232.997910,101.757332 232.145233,98.560287 231.294571,98.560829 
	C226.080933,98.564117 224.056366,95.041130 221.801208,91.397797 
	C221.048599,90.181923 219.791336,88.958046 218.488586,88.459419 
	C213.292984,86.470833 207.991165,84.758911 202.723785,82.958847 
	C192.833435,79.578918 182.654526,85.613724 172.572113,81.865677 
	C169.437790,80.700516 165.271988,82.345314 161.574249,82.653732 
	C151.655869,83.480995 141.423187,82.375122 132.258163,87.708336 
	C129.300934,89.429184 126.274948,91.121429 123.097954,92.357933 
	C114.199539,95.821243 105.921333,100.530067 99.174744,107.107407 
	C92.177689,113.928932 86.251595,121.850159 79.883247,129.312729 
	C79.463333,129.804794 79.258034,130.482788 78.965858,131.080627 
	C76.239601,136.659149 73.438675,142.203278 70.835602,147.838760 
	C69.968750,149.715439 70.161781,152.292343 68.927971,153.753387 
	C62.677917,161.154602 62.450764,164.635101 68.429108,171.130783 
	C67.438812,176.364853 66.479301,181.212341 65.156647,186.287552 
	C64.649742,196.662964 64.495895,206.810532 64.408318,216.958694 
	C64.405540,217.280838 65.084290,217.608856 65.713440,218.198303 
	C66.166817,219.430450 66.256111,220.428894 66.552284,221.361664 
	C69.310501,230.048645 72.104256,238.724335 74.917816,247.755310 
	C79.951096,256.764587 84.954262,265.421875 90.047180,274.301880 
	C90.321068,274.795715 90.555717,275.011993 90.988007,275.395294 
	C91.452019,275.752563 91.768898,275.888031 92.085785,276.023529 
z"/>
<path fill="#5C8EB4" opacity="1.000000" stroke="none" 
	d="
M89.957428,274.079132 
	C84.954262,265.421875 79.951096,256.764587 75.369202,247.588043 
	C77.940453,247.028061 80.093468,247.046371 82.239784,246.935211 
	C87.806419,246.646973 93.370117,246.301743 99.330971,245.883575 
	C100.148399,244.801270 100.935890,243.815475 100.938095,242.827942 
	C101.004303,213.106964 101.019760,183.385696 100.897118,153.665070 
	C100.892159,152.462952 99.467888,151.266693 98.254677,150.053467 
	C91.184250,149.851242 84.564056,149.663269 77.907455,149.122589 
	C82.551216,138.948654 88.586159,130.041214 95.919777,122.009666 
	C96.142967,122.047943 96.366150,122.086227 96.995430,122.661148 
	C98.480125,123.463005 99.558426,123.958641 100.637352,123.959999 
	C135.124283,124.003372 169.611313,124.014290 204.098129,123.940567 
	C205.361389,123.937874 206.622711,123.035484 207.884933,122.552376 
	C208.168579,122.687981 208.699905,122.822495 208.700516,122.959351 
	C208.739685,131.871887 208.735886,140.784607 208.735886,150.224991 
	C206.581009,150.224991 204.795364,150.226700 203.009705,150.224731 
	C180.543137,150.199860 158.075317,150.290741 135.611053,150.050415 
	C131.153595,150.002747 129.852066,151.328094 130.066055,155.708649 
	C130.479324,164.167816 130.358307,172.653091 130.947281,181.800049 
	C133.058228,182.652069 134.680298,182.983475 136.303177,182.987396 
	C151.532974,183.024124 166.762924,183.004837 181.992828,183.001740 
	C181.992828,192.450394 181.992828,201.899048 181.992828,211.930237 
	C164.671478,211.930237 147.767746,211.930237 130.209076,211.930237 
	C130.209076,223.111359 130.087402,233.719208 130.422714,244.312607 
	C130.451904,245.234955 133.484100,246.808350 135.130936,246.820816 
	C157.626190,246.991135 180.123138,246.939575 202.619659,246.942551 
	C204.442154,246.942795 206.264664,246.942596 208.680634,246.942596 
	C208.680634,256.604492 208.680634,265.995300 208.288574,275.319458 
	C207.596970,274.827087 207.297424,274.401337 206.998230,273.547852 
	C207.472977,269.722778 205.780701,268.996918 202.660370,268.919281 
	C195.786545,268.748199 188.923752,268.133392 181.695160,267.676819 
	C181.191879,268.398987 180.373749,269.572937 179.852371,270.321045 
	C175.660873,270.021271 171.956345,269.800446 168.260559,269.478943 
	C164.901321,269.186676 161.555283,268.741394 158.195587,268.456146 
	C157.082733,268.361664 155.944839,268.615784 154.819473,268.604309 
	C152.239594,268.577942 149.659805,268.414917 147.081024,268.436035 
	C141.950943,268.478058 136.817459,268.766907 131.693497,268.636230 
	C128.873474,268.564301 126.082832,267.670197 123.255783,267.463318 
	C119.294479,267.173492 115.307137,267.023071 111.340202,267.136749 
	C109.826645,267.180084 108.368629,268.238495 106.832039,268.619476 
	C104.577843,269.178467 102.057144,270.372864 100.034683,269.839020 
	C93.696205,268.166077 92.935509,268.239899 89.957428,274.079132 
z"/>
<path fill="#5E8EB2" opacity="1.000000" stroke="none" 
	d="
M500.826843,302.987366 
	C510.019592,302.587341 510.019562,302.587341 510.019257,293.786926 
	C510.018829,281.238129 510.018860,281.238007 497.484619,281.231049 
	C495.530701,281.229980 493.576782,281.230896 491.047333,281.230896 
	C491.047333,276.017914 490.863342,271.387329 491.189240,266.792938 
	C491.261871,265.769043 493.112152,264.061859 494.169586,264.042114 
	C505.164185,263.836761 516.166748,263.800995 527.158508,264.069397 
	C528.353760,264.098602 530.490295,266.318146 530.510010,267.548706 
	C530.747864,282.376129 530.756836,297.209961 530.531799,312.037659 
	C530.510132,313.465424 528.776062,315.745361 527.407227,316.140289 
	C511.714905,320.667450 495.791626,322.887604 479.654388,318.711426 
	C467.415771,315.544128 458.795746,307.782074 454.077118,296.158905 
	C447.707489,280.468903 447.261444,264.353394 452.824493,248.368866 
	C458.670258,231.572021 471.700226,222.955139 488.463989,219.975006 
	C501.221741,217.707016 513.969604,218.502518 526.263977,223.507431 
	C529.469116,224.812210 530.612671,225.863861 528.803894,229.201141 
	C526.831116,232.841049 526.257568,238.209702 523.329468,240.052170 
	C521.017761,241.506790 516.102783,238.470062 512.273071,237.954712 
	C507.372040,237.295197 502.313904,236.401611 497.474152,236.946625 
	C482.035797,238.685150 472.070526,249.081924 471.149872,264.677094 
	C470.752991,271.399597 471.113495,278.450500 472.748596,284.944641 
	C475.380707,295.398804 482.757751,304.633301 500.826843,302.987366 
z"/>
<path fill="#5E8EB2" opacity="1.000000" stroke="none" 
	d="
M858.705078,215.047455 
	C861.795837,214.690247 864.878479,214.178513 867.979431,214.017014 
	C871.434326,213.837097 874.905701,213.975800 878.718018,213.975800 
	C878.718018,249.171555 878.718018,283.883301 878.718018,318.562225 
	C866.678955,321.024841 864.244080,319.989929 859.041138,310.414001 
	C855.060913,313.244202 851.411743,316.883484 847.011169,318.771210 
	C834.083618,324.316711 819.880981,319.485474 813.521057,306.457001 
	C805.677368,290.389038 805.671204,273.358521 813.294800,257.218750 
	C821.882507,239.037964 846.207947,237.527145 859.487671,253.353348 
	C859.093628,248.562393 858.770386,244.631958 858.906311,240.128693 
	C859.574219,232.201401 859.824829,224.847519 859.932251,217.491531 
	C859.944031,216.682983 859.133972,215.862427 858.705078,215.047455 
M829.975037,272.737213 
	C828.442017,280.392120 828.606018,287.980743 831.290833,295.356628 
	C833.590698,301.675079 838.041809,304.341370 845.326477,304.151184 
	C852.270264,303.969879 855.863281,301.452118 857.928894,294.968597 
	C860.686523,286.313141 860.949036,277.408417 857.900024,268.954041 
	C856.653809,265.498596 853.278015,261.680084 849.938110,260.323120 
	C839.963318,256.270660 833.555542,260.401062 829.975037,272.737213 
z"/>
<path fill="#2A5276" opacity="1.000000" stroke="none" 
	d="
M839.202637,118.854492 
	C840.514954,133.661285 839.383301,147.551666 827.372742,157.553528 
	C815.395874,167.527374 801.441223,168.346527 787.467346,162.816483 
	C774.327393,157.616440 768.115112,146.713348 766.826355,132.955368 
	C765.835876,122.381233 766.317932,111.848412 772.349670,102.676659 
	C781.148254,89.297668 799.964294,84.159401 815.900818,89.468216 
	C830.138184,94.210991 836.622742,104.570312 839.202637,118.854492 
M801.714844,149.303253 
	C808.638733,149.399567 814.245300,147.169449 816.608459,140.095413 
	C819.771423,130.627350 819.773682,121.077446 816.009644,111.777405 
	C813.554565,105.711563 808.283936,103.858955 802.201965,104.003006 
	C796.147705,104.146416 790.727600,106.832558 789.659668,112.717331 
	C788.234192,120.572617 788.014954,128.810303 788.525452,136.804062 
	C788.971924,143.794846 793.771240,148.018768 801.714844,149.303253 
z"/>
<path fill="#5F8EB2" opacity="1.000000" stroke="none" 
	d="
M552.286682,282.377930 
	C558.720886,276.076141 566.529907,273.999542 574.774597,273.196350 
	C580.073425,272.680115 585.405579,272.397064 590.728760,272.278748 
	C594.033813,272.205292 595.130310,271.027496 594.610413,267.680664 
	C593.531250,260.733948 589.798279,257.089111 582.134338,257.823883 
	C575.270386,258.481964 568.540894,260.543091 561.178345,262.107086 
	C559.585815,258.976715 557.558899,255.356033 555.949097,251.558517 
	C555.572083,250.669098 556.268005,248.429718 557.043274,248.079285 
	C572.203674,241.226807 587.691040,239.077164 603.280640,246.442520 
	C609.870300,249.555817 614.268372,255.448990 614.484436,262.566437 
	C615.049255,281.174225 614.674744,299.810455 614.674744,319.243164 
	C610.761108,319.243164 606.332520,320.373138 603.063965,318.910675 
	C600.071960,317.571838 598.333313,313.431763 595.558167,309.911896 
	C588.563721,319.529785 578.095825,322.182281 566.739807,320.506561 
	C562.133362,319.826813 557.204041,317.155029 553.708618,313.975006 
	C545.809937,306.788849 545.473511,292.777802 552.286682,282.377930 
M576.168457,305.602478 
	C589.923950,306.324554 596.937195,298.222260 593.992798,283.514160 
	C587.933960,284.599091 581.750427,285.389069 575.741821,286.883087 
	C570.965698,288.070679 569.042419,291.811462 568.929688,296.700165 
	C568.821045,301.412354 570.883789,304.256378 576.168457,305.602478 
z"/>
<path fill="#2C5377" opacity="1.000000" stroke="none" 
	d="
M397.069946,82.337479 
	C396.661713,89.382080 396.253479,96.426674 395.809265,104.091553 
	C407.443207,104.091553 418.308899,104.091553 429.574890,104.091553 
	C429.574890,110.174683 429.574890,115.675034 429.574890,121.905960 
	C418.616394,121.905960 407.858582,121.905960 396.307709,122.222000 
	C395.335754,128.324844 395.026489,134.111969 395.041260,139.898270 
	C395.047302,142.255463 395.756653,144.610840 396.145966,146.967041 
	C396.443085,147.019867 396.688110,147.162338 397.214783,147.932526 
	C408.518768,148.712952 419.488892,148.961533 430.460114,149.142853 
	C430.639801,149.145828 430.833008,148.328476 431.019928,147.893921 
	C431.549591,148.691925 432.502869,149.472336 432.536835,150.290894 
	C432.698334,154.181839 432.730377,158.089920 432.513397,161.975433 
	C432.466858,162.808792 431.196442,163.573853 430.322906,163.959183 
	C428.583710,163.361145 427.012085,163.017975 425.439056,163.011551 
	C409.317596,162.945648 393.195923,162.934357 377.054016,162.445389 
	C377.036469,130.668320 377.039215,99.353676 377.506287,68.026199 
	C394.550018,68.013367 411.129425,68.013367 427.708832,68.013367 
	C427.707001,67.677757 427.705170,67.342155 427.703369,67.006546 
	C410.800446,67.006546 393.897552,67.006546 376.965973,66.697952 
	C376.940247,66.182770 376.943176,65.976181 376.946075,65.769592 
	C382.053253,65.590508 387.159668,65.289726 392.267792,65.256767 
	C404.222809,65.179619 416.180298,65.339996 428.133179,65.162613 
	C431.644745,65.110504 432.959137,66.274170 432.644073,69.747749 
	C432.274536,73.822197 432.160126,77.919769 431.444885,81.742920 
	C419.970184,81.387138 408.985657,81.286438 398.000885,81.252174 
	C397.691711,81.251205 397.380310,81.959763 397.069946,82.337479 
M430.106445,70.547188 
	C430.106445,72.288986 430.106445,74.030785 430.106445,75.772583 
	C430.429443,75.741371 430.752441,75.710152 431.075470,75.678932 
	C430.901733,73.814606 430.728027,71.950287 430.106445,70.547188 
z"/>
<path fill="#2B5377" opacity="1.000000" stroke="none" 
	d="
M549.114258,95.875092 
	C558.685242,105.513451 559.321899,117.450027 558.854797,129.583252 
	C558.822266,130.427216 556.036194,131.826660 554.514954,131.847839 
	C541.520020,132.028824 528.521362,131.950851 515.523865,131.950394 
	C513.892273,131.950333 512.260620,131.950394 510.682983,131.950394 
	C509.780548,143.399628 518.983582,151.964569 530.982849,150.587433 
	C538.799622,149.690323 546.476562,147.574585 554.822815,145.881714 
	C554.822815,149.921326 555.004333,154.498657 554.684387,159.040649 
	C554.612122,160.067383 552.960327,161.432098 551.757202,161.861771 
	C536.465881,167.322876 521.140625,168.234024 506.300781,160.625778 
	C497.121277,155.919525 492.029785,147.763229 490.346893,137.726257 
	C488.297852,125.505600 488.605347,113.346512 495.351898,102.463974 
	C507.291656,83.204521 536.298889,84.451546 549.114258,95.875092 
M514.392395,106.983887 
	C513.012268,110.420738 511.632141,113.857590 510.056427,117.781448 
	C520.574829,117.781448 530.026062,117.781448 539.515503,117.781448 
	C539.357178,110.813515 537.177490,105.251816 530.802673,102.981102 
	C525.103088,100.950867 519.312927,101.402412 514.392395,106.983887 
M531.382141,120.021591 
	C533.824097,120.021591 536.266052,120.021591 538.708008,120.021591 
	C538.690674,119.798668 538.673340,119.575752 538.656006,119.352829 
	C529.815308,119.352829 520.974548,119.352829 512.133850,119.352829 
	C512.132874,119.575768 512.131958,119.798714 512.131042,120.021652 
	C518.225891,120.021652 524.320679,120.021652 531.382141,120.021591 
z"/>
<path fill="#5F8EB2" opacity="1.000000" stroke="none" 
	d="
M741.959290,294.002075 
	C741.959290,302.467621 741.959290,310.433594 741.959290,318.820007 
	C734.984436,318.820007 728.443542,318.820007 721.531494,318.820007 
	C721.531494,294.045654 721.531494,269.326263 721.531494,243.844681 
	C726.114197,243.844681 730.547241,243.668716 734.946960,243.973282 
	C735.995605,244.045868 737.272522,245.554337 737.845093,246.701523 
	C738.789307,248.593384 739.245300,250.728912 739.848511,252.581787 
	C744.368286,249.783798 748.382996,246.617279 752.917480,244.647217 
	C760.158875,241.501114 767.787170,241.478088 775.364563,243.993057 
	C784.239746,246.938766 789.810669,253.532913 790.201721,262.288757 
	C791.038025,281.012726 790.457825,299.799988 790.457825,318.906128 
	C784.148621,318.906128 777.725952,318.906128 770.939331,318.906128 
	C770.874939,317.910706 770.754761,316.816956 770.740967,315.721863 
	C770.556702,301.074066 770.614319,286.418488 770.125488,271.781097 
	C769.849609,263.520905 766.221436,259.679962 759.532593,259.014832 
	C751.663452,258.232330 745.372620,261.978485 743.972717,269.745270 
	C742.569214,277.532379 742.572510,285.572998 741.959290,294.002075 
z"/>
<path fill="#5F8FB2" opacity="1.000000" stroke="none" 
	d="
M896.121460,278.178802 
	C897.113464,244.953796 927.483093,235.605209 950.476257,246.985168 
	C959.355835,251.379898 963.394531,259.635712 964.961914,269.070648 
	C965.585388,272.823700 965.361267,276.710052 965.815369,280.500702 
	C966.396973,285.355865 964.921814,287.229858 959.603699,287.048706 
	C947.294434,286.629486 934.961060,286.915283 922.637512,286.915192 
	C921.006165,286.915192 919.374817,286.915222 917.929871,286.915222 
	C915.377441,293.714142 922.612915,303.017334 928.766357,304.401855 
	C937.915222,306.460205 946.581543,304.674164 955.223022,302.006805 
	C956.935120,301.478302 958.579590,300.730743 961.156738,299.736420 
	C961.156738,304.904083 961.479492,309.492889 960.963318,313.985291 
	C960.804932,315.363281 958.541504,317.124023 956.914001,317.609222 
	C944.596008,321.281647 932.173218,322.477020 919.600586,318.568359 
	C906.364990,314.453552 896.925659,302.494690 896.269592,288.632599 
	C896.112366,285.309784 896.148071,281.977814 896.121460,278.178802 
M946.016846,272.180237 
	C945.971863,271.183197 945.978516,270.180695 945.873718,269.189972 
	C944.996338,260.896912 937.981140,255.911041 928.979126,257.163788 
	C921.903564,258.148438 916.827942,265.674561 918.315430,274.060059 
	C918.699097,274.341248 919.080505,274.864380 919.466675,274.867920 
	C927.514893,274.941711 935.564514,275.012085 943.611084,274.897522 
	C944.417603,274.886017 945.207092,273.682251 946.016846,272.180237 
z"/>
<path fill="#5F8EB2" opacity="1.000000" stroke="none" 
	d="
M975.643433,318.071350 
	C974.498047,311.954651 975.272400,306.597656 979.418091,301.343231 
	C988.798584,289.454285 997.577209,277.090149 1006.578918,264.903259 
	C1007.514160,263.637115 1008.303711,262.263367 1009.862122,259.856354 
	C1004.290771,259.856354 999.882263,259.856720 995.473755,259.856232 
	C990.640686,259.855682 985.801941,259.980713 980.978455,259.765198 
	C979.759583,259.710724 977.615356,258.644440 977.557861,257.912598 
	C977.233154,253.780029 977.284363,249.598801 977.566895,245.458679 
	C977.608459,244.849670 979.563965,243.908676 980.638794,243.902039 
	C996.970581,243.801468 1013.303223,243.827072 1029.635620,243.839157 
	C1030.792603,243.840012 1031.949585,243.965469 1033.768433,244.071625 
	C1033.797607,250.423416 1035.225098,256.340393 1030.435669,262.320190 
	C1020.765259,274.394135 1011.955261,287.157806 1002.825562,299.662628 
	C1002.086609,300.674774 1001.617126,301.883667 1000.570129,303.850952 
	C1009.263123,303.850952 1017.174744,303.851013 1025.086304,303.850983 
	C1035.248169,303.850922 1035.262573,303.850983 1035.183594,314.209503 
	C1035.172241,315.690491 1034.943726,317.169800 1034.120728,318.540497 
	C1032.451538,318.287628 1031.477417,318.019196 1030.503296,318.019104 
	C1012.216675,318.017517 993.930054,318.047760 975.643433,318.071350 
z"/>
<path fill="#2C5377" opacity="1.000000" stroke="none" 
	d="
M669.306152,73.699959 
	C669.652283,76.711700 670.069397,79.717613 670.317627,82.737404 
	C670.464478,84.524323 670.344482,86.333176 670.344482,88.794083 
	C677.541016,88.794083 684.270081,88.794083 691.283691,88.794083 
	C691.283691,94.188370 691.283691,98.919365 691.283691,104.324348 
	C685.590515,104.324348 680.135132,104.460640 674.690857,104.272781 
	C671.468506,104.161598 670.252502,105.299355 670.295471,108.567085 
	C670.431213,118.889435 670.265625,129.215576 670.379639,139.538437 
	C670.464111,147.191406 673.140076,149.671600 680.878540,149.247192 
	C684.407288,149.053665 687.906311,148.318970 692.076294,147.738174 
	C692.076294,152.047470 692.209290,156.297028 691.973511,160.526031 
	C691.921082,161.467224 690.737244,162.852295 689.791809,163.157227 
	C681.628540,165.790085 673.303284,167.279114 664.833740,164.754333 
	C654.889893,161.790085 650.304688,156.031586 649.977661,145.522766 
	C649.625610,134.209579 649.768066,122.881516 649.648621,111.560425 
	C649.584839,105.518280 651.207092,103.947571 642.762878,104.292656 
	C641.962891,104.325340 641.151062,104.068970 640.300232,103.940056 
	C638.915161,98.631042 639.510864,94.365242 645.272278,92.202888 
	C653.069214,89.276573 653.179382,81.390465 656.830261,75.130005 
	C667.723267,75.101273 667.719849,75.101372 668.009705,84.985603 
	C668.028259,85.618713 668.157898,86.248573 668.235840,86.879944 
	C668.379822,86.876862 668.523743,86.873779 668.667725,86.870697 
	C668.880493,82.480453 669.093323,78.090202 669.306152,73.699959 
M651.002075,137.418884 
	C651.002075,140.186356 651.002075,142.953812 651.002075,145.721283 
	C651.246216,145.703033 651.490417,145.684799 651.734558,145.666550 
	C651.734558,132.499405 651.734558,119.332268 651.734558,106.165115 
	C651.490479,106.164078 651.246460,106.163033 651.002380,106.161987 
	C651.002380,116.255684 651.002380,126.349373 651.002075,137.418884 
M668.003784,107.486282 
	C668.003784,118.529305 668.003784,129.572327 668.003784,140.615341 
	C668.908875,129.662628 668.916748,118.721146 668.872559,107.779877 
	C668.871155,107.435844 668.332336,107.093994 668.003784,107.486282 
M675.929565,102.983154 
	C677.424866,102.983170 678.921387,103.021614 680.415344,102.977036 
	C691.152649,102.656715 689.911316,105.361443 689.918640,93.128677 
	C689.918823,92.828392 689.665283,92.527954 688.999878,91.049675 
	C688.999878,93.649010 688.837952,94.976601 689.028992,96.251297 
	C689.717834,100.846992 687.877563,102.519768 683.260559,102.057755 
	C679.598206,101.691261 675.869873,101.983948 672.170776,101.983948 
	C672.166748,102.273270 672.162659,102.562592 672.158630,102.851913 
	C673.129150,102.895615 674.099731,102.939316 675.929565,102.983154 
z"/>
<path fill="#2A5276" opacity="1.000000" stroke="none" 
	d="
M587.997986,92.895508 
	C587.997986,92.895500 588.161987,92.717415 588.714966,92.806297 
	C592.188049,91.946617 595.061340,90.386871 598.036743,90.158638 
	C609.055176,89.313431 620.118408,88.813110 630.516663,93.907852 
	C630.381226,95.039459 630.246033,96.169029 630.110840,97.298599 
	C628.958069,100.876717 627.805237,104.454826 626.567993,108.295105 
	C622.174561,107.032738 618.263550,105.791985 614.292175,104.790527 
	C603.843567,102.155754 596.507996,105.660294 594.204651,116.091240 
	C592.710571,122.857338 592.778687,130.394730 594.041321,137.236954 
	C595.673645,146.082657 601.789612,149.739517 610.941711,149.063797 
	C614.710999,148.785492 618.419617,147.684982 622.785889,147.214279 
	C624.809937,147.568420 626.203918,147.666733 628.762573,147.847183 
	C627.841003,152.756638 626.959900,157.450470 626.078796,162.144318 
	C626.078796,162.144318 626.019104,162.028671 625.813293,161.961243 
	C625.075684,162.275085 624.543945,162.656342 624.012207,163.037613 
	C612.762512,167.330963 601.548950,166.801575 590.111267,162.140106 
	C588.144714,160.743774 586.428467,159.992645 584.712158,159.241516 
	C584.712158,159.241516 584.865906,159.171570 584.849243,158.854935 
	C583.520264,157.714294 582.207947,156.890289 580.895691,156.066284 
	C580.895691,156.066299 580.982788,156.025192 580.971558,155.678284 
	C579.819153,154.058823 578.677979,152.786285 577.536804,151.513733 
	C577.536804,151.513733 577.545959,151.436234 577.656433,151.027603 
	C574.620056,142.111725 573.207703,133.381012 573.936890,124.280670 
	C574.225342,120.680336 573.889771,117.030006 573.838318,113.402435 
	C573.838318,113.402435 573.698242,113.193275 574.144409,113.033630 
	C575.661499,109.501846 576.732361,106.129715 577.803284,102.757584 
	C577.803284,102.757584 577.872498,102.905464 578.178833,102.876053 
	C579.953186,100.843597 581.421204,98.840561 582.889160,96.837517 
	C582.889160,96.837509 582.938416,96.932106 583.256104,96.911575 
	C585.048584,95.559204 586.523315,94.227356 587.997986,92.895508 
z"/>
<path fill="#6190B3" opacity="1.000000" stroke="none" 
	d="
M637.949341,319.085236 
	C637.348267,317.794281 636.226318,316.504883 636.222473,315.212158 
	C636.124756,282.664734 636.132446,250.116974 636.194519,217.569412 
	C636.196655,216.445389 636.949219,215.322830 637.885010,214.682831 
	C642.332703,215.443329 646.256348,216.023315 650.159668,215.909363 
	C653.777893,215.803757 655.090088,216.814484 655.072876,220.652023 
	C654.933655,251.580429 654.952148,282.509888 655.055054,313.438538 
	C655.066406,316.846375 654.111755,318.116272 650.556946,318.078094 
	C646.358521,318.032990 642.152222,318.717194 637.949341,319.085236 
z"/>
<path fill="#295175" opacity="1.000000" stroke="none" 
	d="
M708.061951,91.002068 
	C708.209045,90.405632 708.179810,89.475243 708.541138,89.284515 
	C709.224792,88.923538 710.138123,88.861435 710.946655,88.895721 
	C715.052917,89.069794 720.143433,87.932747 722.964966,89.948395 
	C725.463257,91.733109 725.436157,97.052925 726.549316,100.899887 
	C731.096924,97.225731 735.031128,92.793930 739.957214,90.423943 
	C744.764587,88.111130 750.585327,87.904724 757.086243,86.536880 
	C756.507568,94.296745 756.057495,100.331635 755.567261,106.905251 
	C743.814575,105.856369 733.591675,107.248863 728.507080,120.118973 
	C727.540710,121.853645 727.027405,123.269928 727.022217,124.688072 
	C726.974243,137.812897 727.013916,150.938034 727.028076,164.063080 
	C721.004517,164.146027 714.980957,164.228958 708.854797,163.759750 
	C708.828125,139.877335 708.912537,116.547073 708.941101,93.216751 
	C708.942017,92.478882 708.367981,91.740311 708.061951,91.002068 
z"/>
<path fill="#274F74" opacity="1.000000" stroke="none" 
	d="
M471.091187,163.238525 
	C465.361603,163.586792 459.632050,163.935074 453.452698,163.698120 
	C453.004395,133.136917 453.006012,103.160950 453.007233,73.184982 
	C453.007721,60.953686 453.012665,61.181587 465.308502,60.893330 
	C470.036530,60.782486 471.107513,62.331364 471.087189,66.818588 
	C470.941620,98.957901 471.058044,131.098404 471.091187,163.238525 
z"/>
<path fill="#2C557C" opacity="1.000000" stroke="none" 
	d="
M96.036713,121.687218 
	C88.586159,130.041214 82.551216,138.948654 77.577332,149.275146 
	C75.603004,153.228333 73.771957,156.612854 72.284584,160.142197 
	C70.827591,163.599457 69.720543,167.204178 68.459900,170.744186 
	C62.450764,164.635101 62.677917,161.154602 68.927971,153.753387 
	C70.161781,152.292343 69.968750,149.715439 70.835602,147.838760 
	C73.438675,142.203278 76.239601,136.659149 78.965858,131.080627 
	C79.258034,130.482788 79.463333,129.804794 79.883247,129.312729 
	C86.251595,121.850159 92.177689,113.928932 99.174744,107.107407 
	C105.921333,100.530067 114.199539,95.821243 123.097954,92.357933 
	C126.274948,91.121429 129.300934,89.429184 132.258163,87.708336 
	C141.423187,82.375122 151.655869,83.480995 161.574249,82.653732 
	C165.271988,82.345314 169.437790,80.700516 172.572113,81.865677 
	C182.654526,85.613724 192.833435,79.578918 202.723785,82.958847 
	C207.991165,84.758911 213.292984,86.470833 218.488586,88.459419 
	C219.791336,88.958046 221.048599,90.181923 221.801208,91.397797 
	C224.056366,95.041130 226.080933,98.564117 231.294571,98.560829 
	C232.145233,98.560287 232.997910,101.757332 233.826599,103.871910 
	C226.184647,100.543243 218.920547,95.541679 210.887009,93.310150 
	C170.232727,82.017380 133.019211,88.542824 100.558319,116.659554 
	C98.943283,118.058464 97.615295,119.788773 96.036713,121.687218 
z"/>
<path fill="#6290B3" opacity="1.000000" stroke="none" 
	d="
M679.700684,244.765076 
	C685.759460,244.475479 691.817688,244.079071 697.877625,244.052002 
	C698.524719,244.049118 699.747437,246.201370 699.750061,247.356018 
	C699.802734,270.682434 699.715881,294.009155 698.974854,317.676392 
	C694.295898,318.004852 690.279907,317.743713 686.307556,318.049622 
	C682.207886,318.365326 680.869507,317.017303 680.910645,312.787109 
	C681.112915,291.971436 681.035522,271.152618 680.945862,250.335403 
	C680.937866,248.476883 680.134583,246.621765 679.700684,244.765076 
z"/>
<path fill="#3A597A" opacity="1.000000" stroke="none" 
	d="
M283.192841,215.000610 
	C285.832947,215.683380 286.729858,216.957962 286.333466,220.019333 
	C285.655945,225.251831 287.448761,230.867599 283.298737,235.763489 
	C283.802887,230.007355 284.576477,224.026505 285.430237,217.426025 
	C256.025085,217.426025 227.469269,217.426025 198.143539,217.426025 
	C198.143539,210.166794 198.144180,203.418015 198.143280,196.669250 
	C198.142776,193.006363 198.364273,189.325592 198.074356,185.685638 
	C197.785522,182.058777 198.859253,180.720749 202.720474,180.731522 
	C244.343796,180.847672 285.967590,180.799316 327.591248,180.805695 
	C328.237061,180.805801 328.882843,180.929291 330.268799,181.070724 
	C330.585327,185.130005 330.902802,189.201492 331.107727,193.636505 
	C330.874023,193.885696 330.693390,193.793869 330.640411,193.653763 
	C329.320435,190.162964 328.964783,185.254623 326.444977,183.558411 
	C323.779144,181.763840 319.055908,182.963837 315.231262,182.962112 
	C279.085663,182.945740 242.939743,183.026337 206.794952,182.857651 
	C202.287781,182.836624 200.768372,183.951416 200.844315,188.662842 
	C200.980515,197.111465 200.319977,205.572937 200.278961,214.797363 
	C201.214813,215.683304 201.864029,215.903275 202.513458,215.903824 
	C228.158463,215.925232 253.803528,215.939758 279.448456,215.891251 
	C280.697144,215.888885 281.944733,215.310669 283.192841,215.000610 
z"/>
<path fill="#6190B3" opacity="1.000000" stroke="none" 
	d="
M698.536987,230.471191 
	C694.127930,234.898361 688.820129,235.390030 684.053589,233.220810 
	C681.441589,232.032135 679.267090,228.354050 678.349854,225.353821 
	C677.184753,221.542618 678.721985,217.798889 682.458191,215.517914 
	C686.420898,213.098663 694.414978,213.574631 697.597534,216.377426 
	C700.895447,219.281845 701.362244,224.822388 698.536987,230.471191 
z"/>
<path fill="#084A75" opacity="1.000000" stroke="none" 
	d="
M471.476135,163.004272 
	C471.058044,131.098404 470.941620,98.957901 471.087189,66.818588 
	C471.107513,62.331364 470.036530,60.782486 465.308502,60.893330 
	C453.012665,61.181587 453.007721,60.953686 453.007233,73.184982 
	C453.006012,103.160950 453.004395,133.136917 452.995422,163.585541 
	C452.533142,163.198257 451.682068,162.338867 451.680817,161.478271 
	C451.632996,127.876411 451.661804,94.274422 451.695618,60.672470 
	C451.695923,60.365879 451.898438,60.059494 452.105530,59.472378 
	C458.560577,59.472378 465.105011,59.472378 471.917755,59.472378 
	C472.005707,60.757843 472.148743,61.877262 472.149170,62.996727 
	C472.160828,95.269073 472.160828,127.541428 472.145416,159.813782 
	C472.144928,160.799240 471.960022,161.784607 471.476135,163.004272 
z"/>
<path fill="#4583AD" opacity="1.000000" stroke="none" 
	d="
M638.417419,319.153656 
	C642.152222,318.717194 646.358521,318.032990 650.556946,318.078094 
	C654.111755,318.116272 655.066406,316.846375 655.055054,313.438538 
	C654.952148,282.509888 654.933655,251.580429 655.072876,220.652023 
	C655.090088,216.814484 653.777893,215.803757 650.159668,215.909363 
	C646.256348,216.023315 642.332703,215.443329 638.224121,214.764282 
	C643.978882,214.362488 649.927551,214.362488 656.551880,214.362488 
	C656.551880,248.667877 656.551880,282.677765 656.345215,317.470398 
	C656.097900,318.524597 656.057251,318.796082 656.016541,319.067566 
	C650.306213,319.119080 644.595825,319.170593 638.417419,319.153656 
z"/>
<path fill="#4583AD" opacity="1.000000" stroke="none" 
	d="
M206.997864,273.975616 
	C207.297424,274.401337 207.596970,274.827087 207.928818,275.522827 
	C191.639465,275.889648 175.317932,276.029724 158.996155,276.072754 
	C136.999207,276.130737 115.002052,276.113953 92.545380,276.076416 
	C91.768898,275.888031 91.452019,275.752563 91.378845,275.196045 
	C93.733833,274.519287 95.844749,274.043793 97.956413,274.040527 
	C134.303513,273.984344 170.650696,273.986359 206.997864,273.975616 
z"/>
<path fill="#3B78A2" opacity="1.000000" stroke="none" 
	d="
M207.440277,122.428055 
	C206.622711,123.035484 205.361389,123.937874 204.098129,123.940567 
	C169.611313,124.014290 135.124283,124.003372 100.637352,123.959999 
	C99.558426,123.958641 98.480125,123.463005 97.266281,122.866119 
	C112.275131,122.423950 127.419136,122.243073 142.563385,122.219856 
	C164.040695,122.186928 185.518188,122.270142 207.440277,122.428055 
z"/>
<path fill="#4583AD" opacity="1.000000" stroke="none" 
	d="
M679.516724,245.149506 
	C680.134583,246.621765 680.937866,248.476883 680.945862,250.335403 
	C681.035522,271.152618 681.112915,291.971436 680.910645,312.787109 
	C680.869507,317.017303 682.207886,318.365326 686.307556,318.049622 
	C690.279907,317.743713 694.295898,318.004852 698.782471,318.041687 
	C692.837830,318.626007 686.403442,319.185608 679.332764,319.800537 
	C679.332764,294.345734 679.332764,269.939819 679.516724,245.149506 
z"/>
<path fill="#2C557C" opacity="1.000000" stroke="none" 
	d="
M630.369080,97.119965 
	C630.246033,96.169029 630.381226,95.039459 630.516663,93.907852 
	C620.118408,88.813110 609.055176,89.313431 598.036743,90.158638 
	C595.061340,90.386871 592.188049,91.946617 588.827209,92.851517 
	C596.664124,87.127594 606.050964,86.938423 615.427368,87.948013 
	C620.915955,88.538979 626.268494,90.393959 632.206848,91.804977 
	C631.553040,93.931160 631.090149,95.436249 630.369080,97.119965 
z"/>
<path fill="#00386A" opacity="1.000000" stroke="none" 
	d="
M377.041962,68.039032 
	C377.039215,99.353676 377.036469,130.668320 376.754517,162.468933 
	C376.275482,162.957443 376.075653,162.959976 375.875793,162.962494 
	C375.875793,162.962494 375.674896,162.673599 375.862122,162.027191 
	C376.046356,129.646255 376.043335,97.911758 376.040344,66.177254 
	C376.153534,66.025452 376.266754,65.873642 376.663025,65.745712 
	C376.943176,65.976181 376.940247,66.182770 376.975220,66.956161 
	C377.022705,67.694984 377.032318,67.867012 377.041962,68.039032 
z"/>
<path fill="#2C5377" opacity="1.000000" stroke="none" 
	d="
M375.796295,66.489441 
	C376.043335,97.911758 376.046356,129.646255 375.939148,161.868988 
	C375.694763,161.714401 375.442841,161.071472 375.443298,160.428757 
	C375.465942,129.219711 375.510315,98.010674 375.796295,66.489441 
z"/>
<path fill="#2C557C" opacity="1.000000" stroke="none" 
	d="
M573.558838,113.673698 
	C573.889771,117.030006 574.225342,120.680336 573.936890,124.280670 
	C573.207703,133.381012 574.620056,142.111725 577.617432,151.025177 
	C570.645508,139.542221 570.407959,126.917290 573.558838,113.673698 
z"/>
<path fill="#084A75" opacity="1.000000" stroke="none" 
	d="
M707.975830,91.464401 
	C708.367981,91.740311 708.942017,92.478882 708.941101,93.216751 
	C708.912537,116.547073 708.828125,139.877335 708.537598,163.547699 
	C708.170776,160.935394 707.891113,157.983185 707.886841,155.030563 
	C707.856262,133.996002 707.881958,112.961349 707.975830,91.464401 
z"/>
<path fill="#0F4770" opacity="1.000000" stroke="none" 
	d="
M397.525391,82.425278 
	C397.380310,81.959763 397.691711,81.251205 398.000885,81.252174 
	C408.985657,81.286438 419.970184,81.387138 431.049561,81.815170 
	C431.144409,82.151810 431.132812,82.113693 430.887787,82.053940 
	C430.154938,82.077408 429.667145,82.160629 429.179321,82.243843 
	C418.779846,82.333580 408.380341,82.423332 397.525391,82.425278 
z"/>
<path fill="#3A597A" opacity="1.000000" stroke="none" 
	d="
M278.364777,251.108795 
	C281.329224,254.459137 277.438568,256.885986 276.385223,259.296448 
	C274.096985,264.532684 270.323853,269.132629 267.031036,273.905243 
	C266.456696,274.737732 265.262451,275.142517 263.991577,275.671204 
	C268.473053,267.521362 273.317444,259.445190 278.364777,251.108795 
z"/>
<path fill="#0F4770" opacity="1.000000" stroke="none" 
	d="
M21.999178,186.476944 
	C22.711611,186.214630 23.887951,186.408630 23.889502,186.611588 
	C23.963480,196.307770 23.941935,206.004791 23.869627,215.701248 
	C23.868364,215.870422 23.117727,216.033997 22.404133,216.093948 
	C22.032681,206.304276 21.973856,196.620865 21.999178,186.476944 
z"/>
<path fill="#3B78A2" opacity="1.000000" stroke="none" 
	d="
M975.895264,318.457733 
	C993.930054,318.047760 1012.216675,318.017517 1030.503296,318.019104 
	C1031.477417,318.019196 1032.451538,318.287628 1033.722168,318.728668 
	C1014.728149,318.965515 995.437683,318.904816 975.895264,318.457733 
z"/>
<path fill="#001560" opacity="1.000000" stroke="none" 
	d="
M375.974365,163.417786 
	C376.075653,162.959976 376.275482,162.957443 376.774841,162.931366 
	C393.195923,162.934357 409.317596,162.945648 425.439056,163.011551 
	C427.012085,163.017975 428.583710,163.361145 430.017639,163.831055 
	C411.943848,164.033768 394.008392,163.953415 375.974365,163.417786 
z"/>
<path fill="#3B78A2" opacity="1.000000" stroke="none" 
	d="
M181.848450,182.578003 
	C166.762924,183.004837 151.532974,183.024124 136.303177,182.987396 
	C134.680298,182.983475 133.058228,182.652069 131.136841,182.150085 
	C147.793304,181.936493 164.748688,182.045395 181.848450,182.578003 
z"/>
<path fill="#274F74" opacity="1.000000" stroke="none" 
	d="
M626.456543,162.066345 
	C626.959900,157.450470 627.841003,152.756638 628.762573,147.847183 
	C626.203918,147.666733 624.809937,147.568420 623.191101,147.196457 
	C624.094910,146.296341 625.223572,145.669891 626.831787,145.164612 
	C627.468689,144.984604 627.626099,144.683426 627.783508,144.382248 
	C628.457092,144.301331 629.130615,144.220398 629.804199,144.139465 
	C629.749451,149.431259 629.798157,154.728561 629.516541,160.008255 
	C629.478882,160.713959 627.769470,161.330505 626.456543,162.066345 
z"/>
<path fill="#00386A" opacity="1.000000" stroke="none" 
	d="
M727.298828,164.117554 
	C727.013916,150.938034 726.974243,137.812897 727.022217,124.688072 
	C727.027405,123.269928 727.540710,121.853645 728.213562,120.237976 
	C728.581360,120.386406 728.553894,120.733353 728.251587,121.788315 
	C728.031494,136.101624 728.086304,149.706940 728.141113,163.312241 
	C727.950623,163.598846 727.760071,163.885452 727.298828,164.117554 
z"/>
<path fill="#3A597A" opacity="1.000000" stroke="none" 
	d="
M329.859863,223.583344 
	C329.342133,220.718536 328.473816,217.424866 328.697449,214.207047 
	C328.965332,210.352600 330.165375,206.562927 331.011871,202.292465 
	C330.705627,208.955841 330.349274,216.071945 329.859863,223.583344 
z"/>
<path fill="#3A597A" opacity="1.000000" stroke="none" 
	d="
M321.392761,258.770782 
	C321.225708,257.176270 320.834137,255.154587 321.369934,253.419235 
	C322.761871,248.911087 324.561371,244.528748 326.545227,240.043182 
	C325.125122,246.151443 323.357941,252.312759 321.392761,258.770782 
z"/>
<path fill="#4583AD" opacity="1.000000" stroke="none" 
	d="
M858.645020,215.487991 
	C859.133972,215.862427 859.944031,216.682983 859.932251,217.491531 
	C859.824829,224.847519 859.574219,232.201401 859.054688,239.723282 
	C858.690918,231.903290 858.637878,223.915924 858.645020,215.487991 
z"/>
<path fill="#295175" opacity="1.000000" stroke="none" 
	d="
M728.265381,162.900848 
	C728.086304,149.706940 728.031494,136.101624 728.080750,121.992142 
	C728.253052,135.155136 728.321350,148.822311 728.265381,162.900848 
z"/>
<path fill="#0F4770" opacity="1.000000" stroke="none" 
	d="
M430.559723,147.788879 
	C430.833008,148.328476 430.639801,149.145828 430.460114,149.142853 
	C419.488892,148.961533 408.518768,148.712952 397.296326,148.132660 
	C408.062592,147.757751 419.081055,147.720795 430.559723,147.788879 
z"/>
<path fill="#3A597A" opacity="1.000000" stroke="none" 
	d="
M263.296295,275.785797 
	C262.609650,281.112457 258.620514,284.062653 253.923187,286.601715 
	C256.709412,282.966278 259.857239,279.451202 263.296295,275.785797 
z"/>
<path fill="#3A597A" opacity="1.000000" stroke="none" 
	d="
M327.155640,238.662613 
	C327.636658,234.752182 328.236328,230.496338 329.163330,226.103027 
	C328.751862,230.082764 328.013092,234.199982 327.155640,238.662613 
z"/>
<path fill="#3A597A" opacity="1.000000" stroke="none" 
	d="
M282.685974,237.989258 
	C284.596222,242.001572 282.575073,245.433441 279.898071,248.908264 
	C280.572784,245.463165 281.539856,241.887604 282.685974,237.989258 
z"/>
<path fill="#00386A" opacity="1.000000" stroke="none" 
	d="
M396.165161,146.501038 
	C395.756653,144.610840 395.047302,142.255463 395.041260,139.898270 
	C395.026489,134.111969 395.335754,128.324844 395.854553,122.286926 
	C396.191071,130.035553 396.187714,138.035294 396.165161,146.501038 
z"/>
<path fill="#00386A" opacity="1.000000" stroke="none" 
	d="
M669.288513,73.707047 
	C669.093323,78.090202 668.880493,82.480453 668.667725,86.870697 
	C668.523743,86.873779 668.379822,86.876862 668.235840,86.879944 
	C668.157898,86.248573 668.028259,85.618713 668.009705,84.985603 
	C667.719849,75.101372 667.723267,75.101273 657.113770,74.939545 
	C656.661316,74.745903 656.695251,74.576385 657.362488,74.235275 
	C661.742859,73.942543 665.489929,73.821396 669.237061,73.700249 
	C669.237061,73.700249 669.270874,73.714134 669.288513,73.707047 
z"/>
<path fill="#3A597A" opacity="1.000000" stroke="none" 
	d="
M253.182800,286.691498 
	C252.925049,291.235687 248.921371,292.202057 245.230011,293.901306 
	C247.539017,291.545441 250.211166,289.183350 253.182800,286.691498 
z"/>
<path fill="#2C557C" opacity="1.000000" stroke="none" 
	d="
M577.484497,102.896027 
	C576.732361,106.129715 575.661499,109.501846 574.222534,112.934906 
	C574.958130,109.675377 576.061890,106.354919 577.484497,102.896027 
z"/>
<path fill="#2C557C" opacity="1.000000" stroke="none" 
	d="
M582.566650,96.924339 
	C581.421204,98.840561 579.953186,100.843597 578.117065,102.822670 
	C579.247375,100.869522 580.745789,98.940338 582.566650,96.924339 
z"/>
<path fill="#3A597A" opacity="1.000000" stroke="none" 
	d="
M244.579498,293.944275 
	C243.149445,295.329132 241.391357,296.793671 239.343491,298.143433 
	C240.786270,296.693756 242.518860,295.358826 244.579498,293.944275 
z"/>
<path fill="#2C5377" opacity="1.000000" stroke="none" 
	d="
M668.940674,73.389816 
	C665.489929,73.821396 661.742859,73.942543 657.538330,74.044670 
	C660.935425,73.710236 664.789856,73.394806 668.940674,73.389816 
z"/>
<path fill="#2C557C" opacity="1.000000" stroke="none" 
	d="
M587.655640,92.925903 
	C586.523315,94.227356 585.048584,95.559204 583.206604,96.891815 
	C584.330688,95.580482 585.822021,94.268387 587.655640,92.925903 
z"/>
<path fill="#2C557C" opacity="1.000000" stroke="none" 
	d="
M577.653442,151.813141 
	C578.677979,152.786285 579.819153,154.058823 580.945618,155.718842 
	C579.877258,154.775055 578.823669,153.443787 577.653442,151.813141 
z"/>
<path fill="#2C557C" opacity="1.000000" stroke="none" 
	d="
M584.856445,159.544891 
	C586.428467,159.992645 588.144714,160.743774 589.888428,161.861542 
	C588.277466,161.434860 586.639038,160.641571 584.856445,159.544891 
z"/>
<path fill="#2C557C" opacity="1.000000" stroke="none" 
	d="
M580.998108,156.374268 
	C582.207947,156.890289 583.520264,157.714294 584.794800,158.919556 
	C583.538269,158.427979 582.319397,157.555115 580.998108,156.374268 
z"/>
<path fill="#2C557C" opacity="1.000000" stroke="none" 
	d="
M235.750351,105.707520 
	C236.375656,105.752663 237.121887,106.076035 237.913910,106.749542 
	C237.263550,106.728371 236.567413,106.357056 235.750351,105.707520 
z"/>
<path fill="#274F74" opacity="1.000000" stroke="none" 
	d="
M624.323730,163.067719 
	C624.543945,162.656342 625.075684,162.275085 625.860840,162.005737 
	C625.621155,162.444382 625.128174,162.771118 624.323730,163.067719 
z"/>
<path fill="#2C5377" opacity="1.000000" stroke="none" 
	d="
M429.405853,82.402695 
	C429.667145,82.160629 430.154938,82.077408 430.886719,82.066010 
	C430.631256,82.279060 430.131805,82.420296 429.405853,82.402695 
z"/>
<path fill="#2C557C" opacity="1.000000" stroke="none" 
	d="
M233.894669,104.481804 
	C234.356796,104.404289 234.948898,104.599792 235.603088,105.123062 
	C235.118347,105.218826 234.571487,104.986824 233.894669,104.481804 
z"/>
<path fill="#6190B3" opacity="1.000000" stroke="none" 
	d="
M656.275879,318.975220 
	C656.057251,318.796082 656.097900,318.524597 656.236755,317.850891 
	C656.401672,317.926697 656.468384,318.404785 656.275879,318.975220 
z"/>
<path fill="#2A5276" opacity="1.000000" stroke="none" 
	d="
M627.549683,144.492645 
	C627.626099,144.683426 627.468689,144.984604 627.157166,145.150391 
	C627.107239,144.877686 627.211487,144.740387 627.549683,144.492645 
z"/>
<path fill="#F3F1EA" opacity="1.000000" stroke="none" 
	d="
M68.429115,171.130783 
	C69.720543,167.204178 70.827591,163.599457 72.284584,160.142197 
	C73.771957,156.612854 75.603004,153.228333 77.613724,149.627853 
	C84.564056,149.663269 91.184250,149.851242 98.280396,150.516449 
	C98.815895,182.655548 98.875435,214.317413 98.934982,245.979279 
	C93.370117,246.301743 87.806419,246.646973 82.239784,246.935211 
	C80.093468,247.046371 77.940453,247.028061 75.339104,247.236023 
	C72.104256,238.724335 69.310501,230.048645 66.552284,221.361664 
	C66.256111,220.428894 66.166817,219.430450 65.737930,217.733780 
	C65.502808,206.690002 65.511299,196.374908 65.519791,186.059814 
	C66.479301,181.212341 67.438812,176.364853 68.429115,171.130783 
z"/>
<path fill="#5C91B9" opacity="1.000000" stroke="none" 
	d="
M206.998230,273.547852 
	C170.650696,273.986359 134.303513,273.984344 97.956413,274.040527 
	C95.844749,274.043793 93.733833,274.519287 91.231720,274.974243 
	C90.555717,275.011993 90.321068,274.795715 90.047180,274.301880 
	C92.935509,268.239899 93.696205,268.166077 100.034683,269.839020 
	C102.057144,270.372864 104.577843,269.178467 106.832039,268.619476 
	C108.368629,268.238495 109.826645,267.180084 111.340202,267.136749 
	C115.307137,267.023071 119.294479,267.173492 123.255783,267.463318 
	C126.082832,267.670197 128.873474,268.564301 131.693497,268.636230 
	C136.817459,268.766907 141.950943,268.478058 147.081024,268.436035 
	C149.659805,268.414917 152.239594,268.577942 154.819473,268.604309 
	C155.944839,268.615784 157.082733,268.361664 158.195587,268.456146 
	C161.555283,268.741394 164.901321,269.186676 168.260559,269.478943 
	C171.956345,269.800446 175.660873,270.021271 179.852371,270.321045 
	C180.373749,269.572937 181.191879,268.398987 181.695160,267.676819 
	C188.923752,268.133392 195.786545,268.748199 202.660370,268.919281 
	C205.780701,268.996918 207.472977,269.722778 206.998230,273.547852 
z"/>
<path fill="#00386A" opacity="1.000000" stroke="none" 
	d="
M282.704163,215.000122 
	C281.944733,215.310669 280.697144,215.888885 279.448456,215.891251 
	C253.803528,215.939758 228.158463,215.925232 202.513458,215.903824 
	C201.864029,215.903275 201.214813,215.683304 200.274551,215.262711 
	C227.394241,214.973038 254.804886,214.986328 282.704163,215.000122 
z"/>
<path fill="#001560" opacity="1.000000" stroke="none" 
	d="
M65.156647,186.287552 
	C65.511299,196.374908 65.502808,206.690002 65.469818,217.469620 
	C65.084290,217.608856 64.405540,217.280838 64.408318,216.958694 
	C64.495895,206.810532 64.649742,196.662964 65.156647,186.287552 
z"/>
<path fill="#4583AD" opacity="1.000000" stroke="none" 
	d="
M99.330971,245.883575 
	C98.875435,214.317413 98.815895,182.655548 98.730621,150.530701 
	C99.467888,151.266693 100.892159,152.462952 100.897118,153.665070 
	C101.019760,183.385696 101.004303,213.106964 100.938095,242.827942 
	C100.935890,243.815475 100.148399,244.801270 99.330971,245.883575 
z"/>
<path fill="#F3F1EA" opacity="1.000000" stroke="none" 
	d="
M830.016846,272.320068 
	C833.555542,260.401062 839.963318,256.270660 849.938110,260.323120 
	C853.278015,261.680084 856.653809,265.498596 857.900024,268.954041 
	C860.949036,277.408417 860.686523,286.313141 857.928894,294.968597 
	C855.863281,301.452118 852.270264,303.969879 845.326477,304.151184 
	C838.041809,304.341370 833.590698,301.675079 831.290833,295.356628 
	C828.606018,287.980743 828.442017,280.392120 830.016846,272.320068 
z"/>
<path fill="#F2F0E9" opacity="1.000000" stroke="none" 
	d="
M801.285217,149.256775 
	C793.771240,148.018768 788.971924,143.794846 788.525452,136.804062 
	C788.014954,128.810303 788.234192,120.572617 789.659668,112.717331 
	C790.727600,106.832558 796.147705,104.146416 802.201965,104.003006 
	C808.283936,103.858955 813.554565,105.711563 816.009644,111.777405 
	C819.773682,121.077446 819.771423,130.627350 816.608459,140.095413 
	C814.245300,147.169449 808.638733,149.399567 801.285217,149.256775 
z"/>
<path fill="#F2F0E9" opacity="1.000000" stroke="none" 
	d="
M575.772644,305.522400 
	C570.883789,304.256378 568.821045,301.412354 568.929688,296.700165 
	C569.042419,291.811462 570.965698,288.070679 575.741821,286.883087 
	C581.750427,285.389069 587.933960,284.599091 593.992798,283.514160 
	C596.937195,298.222260 589.923950,306.324554 575.772644,305.522400 
z"/>
<path fill="#0F4770" opacity="1.000000" stroke="none" 
	d="
M377.506287,68.026199 
	C377.032318,67.867012 377.022705,67.694984 377.003876,67.264755 
	C393.897552,67.006546 410.800446,67.006546 427.703369,67.006546 
	C427.705170,67.342155 427.707001,67.677757 427.708832,68.013367 
	C411.129425,68.013367 394.550018,68.013367 377.506287,68.026199 
z"/>
<path fill="#0F4770" opacity="1.000000" stroke="none" 
	d="
M430.330383,70.316574 
	C430.728027,71.950287 430.901733,73.814606 431.075470,75.678932 
	C430.752441,75.710152 430.429443,75.741371 430.106445,75.772583 
	C430.106445,74.030785 430.106445,72.288986 430.330383,70.316574 
z"/>
<path fill="#F2F0E9" opacity="1.000000" stroke="none" 
	d="
M514.582520,106.661133 
	C519.312927,101.402412 525.103088,100.950867 530.802673,102.981102 
	C537.177490,105.251816 539.357178,110.813515 539.515503,117.781448 
	C530.026062,117.781448 520.574829,117.781448 510.056427,117.781448 
	C511.632141,113.857590 513.012268,110.420738 514.582520,106.661133 
z"/>
<path fill="#00386A" opacity="1.000000" stroke="none" 
	d="
M530.898804,120.021622 
	C524.320679,120.021652 518.225891,120.021652 512.131042,120.021652 
	C512.131958,119.798714 512.132874,119.575768 512.133850,119.352829 
	C520.974548,119.352829 529.815308,119.352829 538.656006,119.352829 
	C538.673340,119.575752 538.690674,119.798668 538.708008,120.021591 
	C536.266052,120.021591 533.824097,120.021591 530.898804,120.021622 
z"/>
<path fill="#F2F0E9" opacity="1.000000" stroke="none" 
	d="
M918.067810,273.342957 
	C916.827942,265.674561 921.903564,258.148438 928.979126,257.163788 
	C937.981140,255.911041 944.996338,260.896912 945.873718,269.189972 
	C945.978516,270.180695 945.971863,271.183197 945.542969,272.645691 
	C936.068726,273.188446 927.068237,273.265717 918.067810,273.342957 
z"/>
<path fill="#4583AD" opacity="1.000000" stroke="none" 
	d="
M918.191650,273.701538 
	C927.068237,273.265717 936.068726,273.188446 945.536804,273.071533 
	C945.207092,273.682251 944.417603,274.886017 943.611084,274.897522 
	C935.564514,275.012085 927.514893,274.941711 919.466675,274.867920 
	C919.080505,274.864380 918.699097,274.341248 918.191650,273.701538 
z"/>
<path fill="#0F4770" opacity="1.000000" stroke="none" 
	d="
M651.002197,136.930969 
	C651.002380,126.349373 651.002380,116.255684 651.002380,106.161987 
	C651.246460,106.163033 651.490479,106.164078 651.734558,106.165115 
	C651.734558,119.332268 651.734558,132.499405 651.734558,145.666550 
	C651.490417,145.684799 651.246216,145.703033 651.002075,145.721283 
	C651.002075,142.953812 651.002075,140.186356 651.002197,136.930969 
z"/>
<path fill="#00386A" opacity="1.000000" stroke="none" 
	d="
M668.023926,107.118706 
	C668.332336,107.093994 668.871155,107.435844 668.872559,107.779877 
	C668.916748,118.721146 668.908875,129.662628 668.003784,140.615341 
	C668.003784,129.572327 668.003784,118.529305 668.023926,107.118706 
z"/>
<path fill="#084A75" opacity="1.000000" stroke="none" 
	d="
M675.499939,102.983078 
	C674.099731,102.939316 673.129150,102.895615 672.158630,102.851913 
	C672.162659,102.562592 672.166748,102.273270 672.170776,101.983948 
	C675.869873,101.983948 679.598206,101.691261 683.260559,102.057755 
	C687.877563,102.519768 689.717834,100.846992 689.028992,96.251297 
	C688.837952,94.976601 688.999878,93.649010 688.999878,91.049675 
	C689.665283,92.527954 689.918823,92.828392 689.918640,93.128677 
	C689.911316,105.361443 691.152649,102.656715 680.415344,102.977036 
	C678.921387,103.021614 677.424866,102.983170 675.499939,102.983078 
z"/>
</svg>